<svg xmlns="http://www.w3.org/2000/svg" viewBox="0 0 24 24" fill="currentColor">
  <path d="M12 0C5.373 0 0 5.373 0 12s5.373 12 12 12 12-5.373 12-12S18.627 0 12 0zm5.894 11.789h-3.892c-.156-.96-.692-1.795-1.436-2.343l2.18-3.778c1.617.974 2.74 2.658 3.148 4.621v1.5zm-5.894-4.789c.69 0 1.343.143 1.93.4l-2.156 3.736c-.252-.075-.519-.118-.797-.118-.81 0-1.535.343-2.046.892l-3.222-2.36c1.001-1.46 2.66-2.55 4.291-2.55h2zm-5.892 5.789c0-.273.03-.539.082-.797l3.74 2.156c.075.252.118.519.118.797 0 .247-.038.486-.106.713L8.39 16.8c-1.46-1.001-2.282-2.66-2.282-4.291v-1.509zm5.892 5.211c-1.46 0-2.66-1.001-3.486-2.282l3.728-2.103c.243.06.498.094.762.094.144 0 .285-.011.423-.032l.86 4.057c-.728.183-1.5.266-2.287.266h0zm6-2.236c-.74 1.21-1.95 2.118-3.388 2.45l-.86-4.05c.864-.43 1.531-1.214 1.825-2.144h3.526c-.21 1.49-.66 2.764-1.103 3.744z"/>
</svg>
